<svg width="16" height="16" viewBox="0 0 16 16" fill="none" xmlns="http://www.w3.org/2000/svg">
<path d="M13.265 6.26498L8.265 11.265C8.19469 11.3352 8.09938 11.3747 8 11.3747C7.90062 11.3747 7.80531 11.3352 7.735 11.265L2.735 6.26498C2.66876 6.1939 2.6327 6.09987 2.63441 6.00272C2.63613 5.90557 2.67548 5.81288 2.74419 5.74417C2.8129 5.67547 2.90559 5.63611 3.00274 5.6344C3.09989 5.63268 3.19391 5.66874 3.265 5.73498L8 10.4694L12.735 5.73498C12.8061 5.66874 12.9001 5.63268 12.9973 5.6344C13.0944 5.63611 13.1871 5.67547 13.2558 5.74417C13.3245 5.81288 13.3639 5.90557 13.3656 6.00272C13.3673 6.09987 13.3312 6.1939 13.265 6.26498Z" fill="#252A31"/>
</svg>
